<svg width="188" height="321" viewBox="0 0 188 321" fill="none" xmlns="http://www.w3.org/2000/svg">
<path d="M93.703 118.255C41.959 118.255 0 159.28 0 211.075C0 282.64 93.967 320.61 93.703 320.509C93.449 320.611 187.405 282.641 187.405 211.075C187.405 159.311 145.446 118.255 93.703 118.255ZM93.703 248.659C86.6857 248.655 79.8272 246.571 73.9945 242.669C68.1618 238.768 63.6168 233.224 60.9342 226.74C58.2516 220.256 57.5518 213.122 58.9233 206.24C60.2948 199.358 63.676 193.037 68.6395 188.077C73.6029 183.116 79.9256 179.739 86.8084 178.371C93.6911 177.004 100.825 177.708 107.307 180.394C113.79 183.081 119.331 187.629 123.229 193.464C127.127 199.299 129.207 206.159 129.207 213.176C129.218 217.843 128.307 222.467 126.527 226.781C124.747 231.096 122.133 235.017 118.834 238.319C115.536 241.621 111.618 244.24 107.305 246.025C102.993 247.809 98.3703 248.725 93.703 248.72V248.659Z" fill="#FF6F0F"/>
<path d="M114.794 0C92.93 0 77.696 15.286 75.31 33.332C46.15 25.283 23.313 47.44 23.313 71.799C23.313 90.445 36.133 105.517 53.214 110.409C66.998 114.347 91.814 111.414 91.814 111.414C91.682 105.385 97.234 98.767 105.8 92.738C130.16 75.616 149.2 67.537 152.134 44.182C155.21 19.742 137.073 0 114.794 0Z" fill="#00A05B"/>
</svg>
