<svg width="45" height="45" viewBox="0 0 45 45" fill="none" xmlns="http://www.w3.org/2000/svg">
<path d="M42.8984 12.5C42.5 10.3008 40.6016 8.69922 38.3984 8.19922C35.1016 7.5 29 7 22.3984 7C15.8008 7 9.60156 7.5 6.30078 8.19922C4.10156 8.69922 2.19922 10.1992 1.80078 12.5C1.39844 15 1 18.5 1 23C1 27.5 1.39844 31 1.89844 33.5C2.30078 35.6992 4.19922 37.3008 6.39844 37.8008C9.89844 38.5 15.8984 39 22.5 39C29.1016 39 35.1016 38.5 38.6016 37.8008C40.8008 37.3008 42.6992 35.8008 43.1016 33.5C43.5 31 44 27.3984 44.1016 23C43.8984 18.5 43.3984 15 42.8984 12.5ZM17 30V16L29.1992 23L17 30Z" fill="#868B94"/>
</svg>
