<svg width="45" height="45" viewBox="0 0 45 45" fill="none" xmlns="http://www.w3.org/2000/svg">
<path d="M15.2599 12.4295C15.2599 12.6588 15.2599 12.8881 15.2607 13.1174C15.2615 13.6946 15.2517 14.2718 15.2728 14.849C15.2825 14.9762 15.2891 15.1049 15.3211 15.2289C15.3566 15.3716 15.426 15.5081 15.5302 15.6134C15.6281 15.7163 15.7567 15.7847 15.8968 15.8085C16.0036 15.8767 16.0953 15.9656 16.1846 16.0553L16.2918 16.1645V23.0481H19.8163L19.7473 15.2106C19.6763 15.0721 19.6069 14.9329 19.5398 14.7925C19.4119 14.5273 19.2843 14.2613 19.1291 14.0109C18.7781 13.4536 18.2708 13.012 17.6705 12.7411C17.5749 12.6982 17.4794 12.6572 17.3811 12.6214C17.0161 12.4872 16.6339 12.4084 16.2509 12.3464C16.1222 12.3253 15.9935 12.3066 15.8648 12.2852L15.2599 12.1869V12.4295ZM7.41539 12.8331L7.43099 16.28C7.43723 17.4995 7.44386 18.7186 7.45205 19.9382C7.45712 20.6909 7.46297 21.4436 7.46765 22.1967L7.4735 22.9806L8.02652 22.9942L8.06241 22.995L8.20281 22.9989L8.22075 22.9993L8.3787 23.004C8.87868 23.0188 9.37866 23.036 9.87904 23.0391H9.89698C9.9547 23.0391 10.0128 23.0364 10.0709 23.034C10.2047 23.0274 10.3396 23.0071 10.4636 22.9549C10.5151 22.9334 10.5643 22.9069 10.6099 22.8753C10.7718 22.9689 10.9414 23.0504 11.12 23.1066C11.2429 23.1467 11.3681 23.1799 11.4944 23.2045C11.8805 23.2797 12.2783 23.2817 12.6664 23.2236C13.0283 23.1683 13.3814 23.0654 13.7163 22.9174C13.8863 22.8445 14.0509 22.7575 14.2069 22.6577C14.6482 22.3721 15.0265 21.9993 15.3184 21.5622C15.3749 21.4787 15.4292 21.3941 15.4763 21.3048C15.6019 21.0696 15.6877 20.8133 15.7337 20.5509C15.8414 19.9748 15.857 19.3848 15.8078 18.8017C15.793 18.6084 15.7682 18.416 15.7337 18.2253C15.6717 17.893 15.5699 17.5654 15.41 17.2659C15.3572 17.1694 15.3008 17.075 15.2408 16.9827C14.9881 16.5912 14.6796 16.2328 14.3126 15.9442C14.2515 15.895 14.1877 15.8493 14.1215 15.8073C13.8321 15.6236 13.5092 15.4972 13.1785 15.4106C12.6515 15.2694 12.1001 15.2449 11.5627 15.3389C11.3451 15.3783 11.1309 15.4391 10.9258 15.5222V12.6256H7.41461L7.41539 12.8331ZM32.1123 15.2734C31.8748 15.2773 31.638 15.303 31.4048 15.3475C30.9554 15.4329 30.5231 15.5921 30.1256 15.8186C29.6284 16.1087 29.2146 16.5223 28.9244 17.0194C28.8347 17.1723 28.7579 17.3322 28.6927 17.4972C28.559 17.8318 28.4712 18.1836 28.4209 18.54C28.3156 18.0762 28.1237 17.6364 27.8554 17.2437C27.6079 16.8797 27.3037 16.5577 26.9545 16.2897C26.2016 15.7174 25.2918 15.389 24.3469 15.3486C24.1805 15.3431 24.0138 15.347 23.8477 15.3603C23.0479 15.4275 22.2811 15.7091 21.6279 16.1754C21.2683 16.432 20.9527 16.7452 20.6934 17.1029C20.4452 17.4428 20.2603 17.8245 20.1474 18.23C20.1022 18.3973 20.0714 18.5689 20.0558 18.7417C20.0285 19.0603 20.0031 19.3801 20.0168 19.6999C20.0199 19.7869 20.0269 19.8738 20.0405 19.96C20.0764 20.1913 20.1509 20.4148 20.2426 20.6297C20.2964 20.7572 20.3561 20.882 20.4177 21.006C20.7502 21.6132 21.2103 22.1411 21.7663 22.5535C22.0945 22.7913 22.4607 22.9716 22.8493 23.0867C23.2421 23.206 23.6516 23.2661 24.0615 23.2793C24.2206 23.2836 24.3801 23.2793 24.5388 23.2688C25.0263 23.2386 25.5059 23.1312 25.9596 22.9506C26.027 22.924 26.0931 22.8944 26.1577 22.8616C26.4424 22.7158 26.7096 22.5372 26.9576 22.3351C27.1834 22.1518 27.3933 21.949 27.5886 21.7334C27.7138 21.5941 27.8277 21.4444 27.9291 21.2864C28.1488 20.9442 28.31 20.5677 28.4061 20.1726C28.4502 20.5715 28.5426 20.9678 28.7076 21.3348C28.8109 21.5649 28.9435 21.7829 29.1054 21.9767C29.3237 22.2362 29.5815 22.4597 29.8694 22.6389C30.1666 22.8289 30.4875 22.979 30.8151 23.1093C30.9571 23.1647 31.1045 23.2052 31.2539 23.2333V26.4996L31.805 26.4762L31.8603 26.4738L31.9157 26.4715L31.9337 26.4707L32.0526 26.4664C32.5659 26.4469 33.0791 26.4325 33.5916 26.3997C33.9422 26.374 34.2912 26.294 34.6087 26.1408C34.696 26.0979 34.7834 26.0538 34.868 26.0054C35.1973 25.815 35.4984 25.5797 35.7627 25.3062C35.7974 25.2719 35.8294 25.2356 35.8602 25.1978C36.0747 24.9435 36.2635 24.6642 36.3945 24.3573C36.453 24.2208 36.4986 24.0784 36.5322 23.9338C36.6219 23.5574 36.6585 23.1713 36.678 22.786C36.6882 22.5898 36.6948 22.3936 36.7018 22.1975C36.7299 20.9495 36.7221 19.7011 36.7225 18.4527C36.7225 18.1469 36.7233 17.8411 36.7229 17.5354V15.4118H33.3182V15.5015C32.9357 15.3451 32.5255 15.2675 32.1123 15.2734ZM24.4027 18.6106C24.4429 18.6122 24.4846 18.6141 24.5221 18.6301C24.5353 18.6387 24.5458 18.6508 24.5583 18.6605C24.6948 18.7807 24.8243 18.9101 24.9374 19.0525C24.9526 19.0798 24.9553 19.1118 24.9581 19.1422C24.9635 19.2214 24.9561 19.3001 24.9499 19.3785C24.9215 19.5811 24.8172 19.7654 24.6582 19.8941C24.5798 19.9573 24.4881 20.0041 24.3902 20.0271C24.2647 20.0622 24.1289 20.0505 24.0069 20.006C23.851 19.9502 23.7179 19.8444 23.6286 19.705C23.5955 19.6507 23.5697 19.5924 23.5517 19.5314C23.5059 19.3651 23.5219 19.1877 23.5966 19.0322C23.6239 18.9753 23.6586 18.9222 23.6988 18.8739C23.7682 18.774 23.8657 18.6913 23.9811 18.6508C24.0186 18.6375 24.058 18.6313 24.097 18.6262C24.1842 18.6144 24.2722 18.6092 24.3602 18.6106C24.3742 18.6098 24.3883 18.6102 24.4027 18.6106ZM32.6797 18.6184C32.7445 18.6184 32.8088 18.6274 32.8701 18.6477C33.0479 18.7054 33.2 18.8403 33.2764 19.0111C33.301 19.0618 33.3213 19.1137 33.3345 19.1683C33.3669 19.2982 33.3661 19.4382 33.3213 19.565C33.3033 19.6149 33.278 19.6625 33.246 19.7054L33.2359 19.7186C33.1525 19.8232 33.0445 19.9055 32.9215 19.9581C32.8357 19.9964 32.7454 20.0239 32.6528 20.04C32.5916 20.0383 32.5313 20.0251 32.475 20.001C32.4107 19.9755 32.3477 19.9469 32.2862 19.9152C32.1804 19.8448 32.099 19.7435 32.053 19.625C31.9907 19.4729 31.9778 19.3051 32.0163 19.1453C32.0351 19.07 32.067 18.9983 32.1115 18.9347C32.2145 18.7709 32.3896 18.6539 32.5811 18.625C32.6138 18.62 32.647 18.6176 32.6797 18.6184ZM11.6964 18.7315C11.7674 18.7319 11.8384 18.7452 11.9035 18.7729C12.0529 18.8353 12.1765 18.9593 12.235 19.1106C12.2658 19.1921 12.276 19.2803 12.2705 19.3664C12.2626 19.4937 12.2192 19.6162 12.1453 19.7202C12.0635 19.8051 11.962 19.8684 11.8497 19.9046C11.7222 19.9479 11.5853 19.9635 11.4511 19.9507C11.3465 19.9351 11.252 19.8796 11.1875 19.7958C11.1046 19.6964 11.0543 19.5738 11.0436 19.4448C11.0278 19.2988 11.0575 19.1514 11.1286 19.0228C11.1735 18.9448 11.2374 18.8766 11.3162 18.8317C11.4305 18.7643 11.5638 18.73 11.6964 18.7315Z" fill="white"/>
<path d="M21.7195 39.5373C21.544 39.3719 20.9356 38.0514 19.7897 35.358L18.1182 31.4058H13.1445C10.2655 31.4058 7.93368 31.3648 7.61388 31.3028C6.78824 31.148 5.67362 30.5598 5.07496 29.9612C4.46656 29.3528 3.87844 28.2896 3.71308 27.5054C3.63079 27.1341 3.59998 24.2652 3.59998 18.3734C3.59998 10.9849 3.62026 9.69512 3.75442 9.16901C4.24972 7.27009 5.82845 5.81499 7.72737 5.51586C8.65557 5.36141 35.4951 5.36141 36.4136 5.51586C38.2606 5.80485 39.7879 7.12578 40.3347 8.88001C40.5308 9.53015 40.5414 9.82928 40.5414 18.3422C40.5414 23.8834 40.4996 27.2889 40.4275 27.5775C40.149 28.8056 39.0964 30.1675 37.9822 30.7662C36.8367 31.375 36.5579 31.4058 31.0889 31.4058H26.1257L24.4542 35.358C23.5252 37.5249 22.6999 39.372 22.6067 39.4648C22.2975 39.7744 22.0085 39.7951 21.7195 39.5373ZM34.556 25.4727C34.8657 25.2972 35.2682 24.9668 35.4538 24.7192C36.0626 23.9146 36.1039 23.6155 36.1039 19.6218V16.0307H33.9371V16.6808L33.7101 16.4745C33.1423 15.9586 32.379 15.7831 31.5019 15.9586C29.8506 16.299 28.9841 17.4757 28.9841 19.3742C28.9841 20.9635 29.4173 21.7579 30.5936 22.3359C31.1201 22.5937 31.3884 22.6658 31.8525 22.6658C32.5955 22.6557 33.2148 22.4903 33.5759 22.2017L33.8645 21.9743L33.7924 22.4287C33.6481 23.3265 33.1735 23.7703 32.3478 23.7703H31.8732V25.8545L32.9359 25.8131C33.8649 25.7819 34.0506 25.741 34.556 25.4727ZM13.5677 22.3047C14.1558 22.0363 14.7232 21.4584 14.9916 20.8909C15.2805 20.2408 15.2911 18.7034 15.0122 17.8984C14.8059 17.29 14.1764 16.526 13.6706 16.2581C12.6184 15.7109 11.2768 15.8037 10.5444 16.4745L10.3068 16.6812V13.2449H8.03703L8.05731 17.8157L8.08851 22.3768L9.20275 22.408C10.2554 22.4392 10.3068 22.4287 10.3068 22.222C10.3068 21.9642 10.338 21.9642 10.8127 22.2739C11.535 22.7586 12.5872 22.7692 13.5677 22.3051V22.3047ZM25.6511 22.408C26.2806 22.181 27.137 21.4486 27.4775 20.8394C28.6022 18.8789 27.3226 16.5057 24.8875 16.0307C23.3602 15.7316 21.709 16.4745 20.9871 17.7955C20.7597 18.2288 20.6774 18.5177 20.6462 19.1371C20.6052 19.8282 20.6361 19.9931 20.8837 20.5504C21.1828 21.2212 21.8638 21.9541 22.4831 22.2739C23.3809 22.738 24.6191 22.7898 25.6511 22.408ZM19.1603 18.889L19.1295 15.3603L18.789 14.6688C18.3144 13.7094 17.5609 13.193 16.3226 12.9867L15.8792 12.9146V14.06C15.8792 15.0401 15.8999 15.2055 16.0442 15.2055C16.137 15.2055 16.364 15.3603 16.5601 15.5565L16.9111 15.9071V22.4287H19.1911L19.1603 18.889Z" fill="#868B94"/>
<path d="M32.1104 20.5196C31.4294 20.2306 31.1611 19.302 31.5636 18.6413C32.1213 17.7233 33.4212 17.8055 33.8545 18.7856C34.1743 19.5188 33.8545 20.2715 33.0807 20.5609C32.6985 20.7052 32.5125 20.6951 32.1104 20.5196ZM10.9469 20.4061C10.1833 19.8796 10.2656 18.6413 11.0912 18.2494C12.2261 17.7127 13.3099 18.8375 12.7319 19.9521C12.4429 20.5196 11.4625 20.7672 10.9469 20.4061ZM23.5459 20.4681C23.3922 20.3761 23.259 20.2537 23.1543 20.1083C23.0496 19.963 22.9757 19.7978 22.937 19.623C22.8984 19.4481 22.8959 19.2671 22.9296 19.0912C22.9634 18.9153 23.0327 18.7482 23.1333 18.6C23.4324 18.1565 23.7522 17.9916 24.3302 17.9916C24.712 17.9916 24.8357 18.0431 25.1765 18.3937C25.517 18.7345 25.5786 18.8582 25.5786 19.24C25.5786 20.3441 24.4542 21.025 23.5459 20.4681Z" fill="#868B94"/>
</svg>
