<svg width="46" height="46" viewBox="0 0 46 46" fill="none" xmlns="http://www.w3.org/2000/svg">
<path d="M15.5852 5C9.77486 5 5 9.76847 5 15.5852V30.4148C5 36.2251 9.76847 41 15.5852 41H30.4148C36.2251 41 41 36.2315 41 30.4148V15.5852C41 9.77486 36.2315 5 30.4148 5H15.5852ZM15.5852 8.27273H30.4148C34.4609 8.27273 37.7273 11.5391 37.7273 15.5852V30.4148C37.7273 34.4609 34.4609 37.7273 30.4148 37.7273H15.5852C11.5391 37.7273 8.27273 34.4609 8.27273 30.4148V15.5852C8.27273 11.5391 11.5391 8.27273 15.5852 8.27273ZM32.6648 11.8523C31.8402 11.8523 31.1818 12.5107 31.1818 13.3352C31.1818 14.1598 31.8402 14.8182 32.6648 14.8182C33.4893 14.8182 34.1477 14.1598 34.1477 13.3352C34.1477 12.5107 33.4893 11.8523 32.6648 11.8523ZM23 13.1818C17.5987 13.1818 13.1818 17.5987 13.1818 23C13.1818 28.4013 17.5987 32.8182 23 32.8182C28.4013 32.8182 32.8182 28.4013 32.8182 23C32.8182 17.5987 28.4013 13.1818 23 13.1818ZM23 16.4545C26.6371 16.4545 29.5455 19.3629 29.5455 23C29.5455 26.6371 26.6371 29.5455 23 29.5455C19.3629 29.5455 16.4545 26.6371 16.4545 23C16.4545 19.3629 19.3629 16.4545 23 16.4545Z" fill="#868B94"/>
</svg>
